<svg id="svg" version="1.1" xmlns="http://www.w3.org/2000/svg" xmlns:xlink="http://www.w3.org/1999/xlink" width="72" height="72" viewBox="0, 0, 400, 400"><g id="svgg"><path id="path0" d="M194.652 0.900 C 194.519 1.395,194.408 2.199,194.405 2.687 C 194.402 3.316,194.223 3.507,193.793 3.342 C 192.856 2.982,190.954 3.944,190.460 5.027 C 190.211 5.574,189.675 6.000,189.236 6.000 C 188.448 6.000,188.277 6.322,187.798 8.700 C 187.568 9.844,187.382 10.000,186.245 10.000 C 184.338 10.000,183.541 10.769,183.465 12.680 L 183.400 14.319 181.481 14.576 C 179.454 14.847,179.179 15.150,178.996 17.312 C 178.937 18.020,178.868 18.738,178.844 18.908 C 178.820 19.077,178.395 19.114,177.900 18.990 C 177.231 18.823,176.897 18.992,176.600 19.650 C 176.173 20.594,175.701 20.900,173.800 21.461 C 172.713 21.782,172.589 21.993,172.478 23.708 C 172.357 25.582,172.343 25.600,170.952 25.600 C 168.809 25.600,168.128 26.155,167.829 28.146 C 167.569 29.879,167.528 29.920,165.783 30.182 C 164.387 30.391,163.954 30.642,163.777 31.349 C 163.653 31.844,163.022 32.748,162.376 33.358 C 161.597 34.093,161.200 34.862,161.200 35.634 C 161.200 36.741,161.113 36.800,159.480 36.800 C 157.319 36.800,156.800 37.319,156.800 39.480 L 156.800 41.200 155.080 41.200 C 152.930 41.200,152.400 41.719,152.400 43.827 C 152.400 45.484,152.390 45.496,150.714 45.721 C 149.734 45.852,148.820 46.251,148.530 46.673 C 147.906 47.585,147.585 47.906,146.673 48.530 C 146.251 48.820,145.852 49.734,145.721 50.714 C 145.496 52.390,145.484 52.400,143.827 52.400 C 141.719 52.400,141.200 52.930,141.200 55.080 L 141.200 56.800 139.480 56.800 C 137.319 56.800,136.800 57.319,136.800 59.480 C 136.800 61.124,136.747 61.200,135.600 61.200 C 134.533 61.200,134.400 61.333,134.400 62.400 C 134.400 63.187,134.198 63.600,133.814 63.600 C 132.189 63.600,132.092 67.013,133.706 67.405 C 134.198 67.524,143.510 67.572,154.400 67.511 L 174.200 67.400 174.320 65.320 L 174.440 63.240 176.520 63.120 C 178.599 63.000,178.600 62.999,178.722 61.542 C 178.870 59.764,179.750 58.905,181.600 58.731 C 182.791 58.620,183.019 58.436,183.127 57.500 C 183.226 56.639,183.463 56.400,184.219 56.400 C 184.912 56.400,185.255 56.121,185.432 55.414 C 185.568 54.872,186.032 54.317,186.463 54.180 C 186.893 54.043,187.406 53.511,187.601 52.996 C 187.803 52.466,188.356 52.005,188.878 51.931 C 189.687 51.816,189.815 51.544,189.920 49.720 L 190.040 47.640 192.120 47.520 C 194.036 47.409,194.210 47.317,194.323 46.341 C 194.399 45.678,194.747 45.202,195.252 45.070 C 195.696 44.954,196.154 44.496,196.270 44.052 C 196.402 43.547,196.878 43.199,197.541 43.123 C 198.287 43.036,198.638 42.734,198.728 42.100 C 198.913 40.799,201.087 40.799,201.272 42.100 C 201.362 42.734,201.713 43.036,202.459 43.123 C 203.122 43.199,203.598 43.547,203.730 44.052 C 203.846 44.496,204.304 44.954,204.748 45.070 C 205.253 45.202,205.601 45.678,205.677 46.341 C 205.790 47.317,205.964 47.409,207.880 47.520 L 209.960 47.640 210.080 49.720 C 210.185 51.544,210.313 51.816,211.122 51.931 C 211.644 52.005,212.197 52.466,212.399 52.996 C 212.594 53.511,213.107 54.043,213.537 54.180 C 213.968 54.317,214.432 54.872,214.568 55.414 C 214.745 56.121,215.088 56.400,215.781 56.400 C 216.537 56.400,216.774 56.639,216.873 57.500 C 216.981 58.436,217.209 58.620,218.400 58.731 C 220.250 58.905,221.130 59.764,221.278 61.542 C 221.400 62.999,221.401 63.000,223.480 63.120 L 225.560 63.240 225.680 65.320 L 225.800 67.400 245.600 67.511 C 256.490 67.572,265.802 67.524,266.294 67.405 C 267.908 67.013,267.811 63.600,266.186 63.600 C 265.802 63.600,265.600 63.187,265.600 62.400 C 265.600 61.333,265.467 61.200,264.400 61.200 C 263.253 61.200,263.200 61.124,263.200 59.480 C 263.200 57.319,262.681 56.800,260.520 56.800 L 258.800 56.800 258.800 55.080 C 258.800 52.930,258.281 52.400,256.173 52.400 C 254.516 52.400,254.504 52.390,254.279 50.714 C 254.148 49.734,253.749 48.820,253.327 48.530 C 252.415 47.906,252.094 47.585,251.470 46.673 C 251.180 46.251,250.266 45.852,249.286 45.721 C 247.610 45.496,247.600 45.484,247.600 43.827 C 247.600 41.719,247.070 41.200,244.920 41.200 L 243.200 41.200 243.200 39.480 C 243.200 37.319,242.681 36.800,240.520 36.800 C 238.887 36.800,238.800 36.741,238.800 35.634 C 238.800 34.862,238.403 34.093,237.624 33.358 C 236.978 32.748,236.347 31.844,236.223 31.349 C 236.046 30.645,235.614 30.391,234.238 30.185 C 232.520 29.927,232.473 29.880,232.215 28.162 C 231.917 26.176,231.205 25.600,229.048 25.600 C 227.657 25.600,227.643 25.582,227.522 23.708 C 227.411 21.993,227.287 21.782,226.200 21.461 C 224.299 20.900,223.827 20.594,223.400 19.650 C 223.116 19.022,222.760 18.825,222.171 18.972 C 221.443 19.154,221.298 18.926,220.971 17.090 L 220.600 15.000 218.736 14.640 C 216.919 14.288,216.866 14.237,216.612 12.541 C 216.324 10.621,215.595 10.000,213.626 10.000 C 212.700 10.000,212.400 9.819,212.400 9.260 C 212.400 7.720,211.531 6.000,210.752 6.000 C 210.325 6.000,209.785 5.567,209.540 5.027 C 209.046 3.944,207.144 2.982,206.207 3.342 C 205.777 3.507,205.598 3.316,205.595 2.687 C 205.578 -0.006,205.590 -0.000,200.000 0.000 C 195.042 0.000,194.886 0.026,194.652 0.900 M81.700 74.665 C 81.360 74.802,81.200 75.866,81.200 77.990 C 81.200 80.948,81.149 81.126,80.246 81.353 C 79.017 81.661,78.846 82.989,78.978 91.200 C 79.110 99.456,78.947 100.945,77.859 101.423 C 77.051 101.777,76.993 102.117,76.888 107.100 C 76.783 112.092,76.730 112.400,75.978 112.400 C 74.768 112.400,74.400 113.944,74.400 119.026 C 74.400 121.574,74.235 123.600,74.029 123.600 C 72.564 123.600,72.400 124.672,72.400 134.229 L 72.400 143.600 71.443 143.600 C 70.152 143.600,70.000 144.176,70.000 149.086 C 70.000 153.128,69.956 153.344,68.967 154.195 L 67.934 155.082 67.867 164.900 C 67.830 170.300,67.669 174.638,67.508 174.540 C 66.165 173.724,65.600 175.251,65.600 179.692 C 65.600 184.017,65.566 184.192,64.500 185.306 C 63.409 186.446,63.400 186.500,63.440 191.699 C 63.479 196.871,63.466 196.954,62.440 197.836 L 61.400 198.730 61.260 207.135 L 61.120 215.539 60.017 216.522 L 58.913 217.505 58.957 223.653 L 59.000 229.800 142.300 229.901 L 225.600 230.002 225.600 232.601 C 225.600 234.030,225.424 235.200,225.209 235.200 C 223.999 235.200,223.400 237.394,223.390 241.866 C 223.381 246.216,223.344 246.406,222.290 247.506 L 221.200 248.644 221.200 255.378 C 221.200 261.322,221.118 262.174,220.500 262.643 C 219.924 263.080,207.292 263.177,149.328 263.187 L 78.856 263.200 78.728 262.300 C 78.648 261.738,78.279 261.354,77.746 261.278 C 77.163 261.195,76.816 260.781,76.656 259.978 C 76.469 259.047,76.208 258.800,75.410 258.800 C 74.527 258.800,74.400 258.628,74.400 257.433 C 74.400 255.542,74.047 254.800,73.147 254.800 C 72.615 254.800,72.307 254.433,72.140 253.600 C 71.954 252.671,71.686 252.400,70.950 252.400 C 70.220 252.400,70.000 252.183,70.000 251.463 C 70.000 250.562,68.880 249.031,66.100 246.130 C 65.385 245.384,64.800 244.599,64.800 244.387 C 64.800 244.174,64.535 244.000,64.210 244.000 C 63.886 244.000,63.341 243.460,63.000 242.800 C 62.166 241.186,59.758 241.031,59.373 242.565 C 59.233 243.122,58.742 243.628,58.213 243.761 C 56.890 244.093,56.811 244.758,56.805 255.700 C 56.800 265.272,56.774 265.600,56.014 265.600 C 54.729 265.600,54.400 266.888,54.400 271.909 C 54.400 276.601,54.385 276.678,53.400 277.127 L 52.400 277.583 52.400 288.104 L 52.400 298.625 51.200 299.078 L 50.000 299.531 50.000 304.758 C 50.000 309.946,49.993 309.987,49.037 310.226 C 47.468 310.620,46.998 324.315,48.520 325.283 C 49.115 325.661,275.416 325.625,276.800 325.247 C 277.350 325.097,277.975 324.580,278.190 324.099 C 278.551 323.287,278.894 323.217,282.990 323.112 C 287.220 323.005,287.405 322.963,287.528 322.100 C 287.648 321.255,287.845 321.200,290.753 321.200 C 293.730 321.200,293.884 321.154,294.737 320.000 C 295.463 319.017,295.911 318.800,297.212 318.800 C 298.639 318.800,298.800 318.699,298.800 317.800 C 298.800 317.014,299.003 316.800,299.750 316.800 C 302.045 316.800,303.200 316.324,303.200 315.377 C 303.200 314.667,303.454 314.424,304.300 314.327 C 305.052 314.240,305.437 313.940,305.518 313.378 C 305.603 312.779,306.122 312.426,307.431 312.076 C 308.599 311.764,309.333 311.309,309.531 310.776 C 309.697 310.325,310.276 309.739,310.817 309.472 C 311.496 309.138,311.914 308.476,312.168 307.334 C 312.504 305.828,312.669 305.659,314.016 305.444 C 315.780 305.162,316.238 304.681,316.602 302.734 C 316.808 301.635,317.117 301.207,317.838 301.026 C 318.585 300.839,318.800 300.518,318.800 299.592 C 318.800 298.808,319.002 298.400,319.390 298.400 C 320.463 298.400,321.200 296.209,321.200 293.020 C 321.200 290.065,321.222 290.000,322.200 290.000 C 323.144 290.000,323.200 289.878,323.200 287.827 C 323.200 285.753,323.250 285.647,324.300 285.527 L 325.400 285.400 325.511 279.445 C 325.617 273.774,325.669 273.433,326.611 272.314 L 327.600 271.139 327.600 257.169 C 327.600 243.550,327.620 243.200,328.386 243.200 C 329.755 243.200,330.000 241.914,330.000 234.721 C 330.000 227.917,330.016 227.782,330.900 227.395 C 332.195 226.827,332.336 225.243,332.370 210.900 C 332.396 199.978,332.477 198.400,333.010 198.400 C 334.092 198.400,334.400 196.482,334.400 189.737 C 334.400 183.540,334.449 183.112,335.172 182.923 C 336.416 182.598,337.451 174.249,336.646 171.040 L 336.385 170.000 255.392 170.000 L 174.400 170.000 174.400 167.808 C 174.400 165.832,174.494 165.592,175.353 165.376 C 176.521 165.083,176.789 163.786,176.796 158.395 C 176.800 154.835,176.858 154.564,177.700 154.195 C 178.576 153.811,178.603 153.616,178.710 147.051 C 178.808 141.034,178.906 140.192,179.610 139.297 C 180.044 138.744,180.400 137.956,180.400 137.546 C 180.400 136.825,181.399 136.800,210.800 136.800 L 241.200 136.800 241.200 144.357 C 241.200 150.879,241.287 151.948,241.833 152.157 C 243.619 152.843,340.592 152.389,341.453 151.691 C 343.071 150.381,343.200 149.567,343.200 140.669 L 343.200 132.085 344.400 130.800 C 345.581 129.535,345.600 129.447,345.600 125.158 C 345.600 122.743,345.766 120.800,345.971 120.800 C 347.435 120.800,347.600 119.727,347.600 110.198 C 347.600 101.461,347.648 100.839,348.339 100.619 C 349.579 100.226,350.000 98.568,350.000 94.076 C 350.000 90.035,350.051 89.767,350.887 89.395 C 352.515 88.670,353.145 75.767,351.600 74.791 C 350.983 74.401,82.665 74.276,81.700 74.665 M57.296 137.264 C 57.023 137.537,56.800 138.534,56.800 139.480 L 56.800 141.200 55.080 141.200 C 52.930 141.200,52.400 141.719,52.400 143.827 C 52.400 145.484,52.390 145.496,50.714 145.721 C 49.734 145.852,48.820 146.251,48.530 146.673 C 47.906 147.585,47.585 147.906,46.673 148.530 C 46.251 148.820,45.852 149.734,45.721 150.714 C 45.496 152.390,45.484 152.400,43.827 152.400 C 41.719 152.400,41.200 152.930,41.200 155.080 L 41.200 156.800 39.480 156.800 C 37.319 156.800,36.800 157.319,36.800 159.480 C 36.800 161.113,36.741 161.200,35.634 161.200 C 34.862 161.200,34.093 161.597,33.358 162.376 C 32.748 163.022,31.844 163.653,31.349 163.777 C 30.642 163.954,30.391 164.387,30.182 165.783 C 29.920 167.528,29.879 167.569,28.146 167.829 C 26.155 168.128,25.600 168.809,25.600 170.952 C 25.600 172.343,25.582 172.357,23.708 172.478 C 21.993 172.589,21.782 172.713,21.461 173.800 C 20.900 175.701,20.594 176.173,19.650 176.600 C 18.992 176.897,18.823 177.231,18.990 177.900 C 19.114 178.395,19.077 178.820,18.908 178.844 C 18.738 178.868,18.020 178.937,17.312 178.996 C 15.150 179.179,14.847 179.454,14.576 181.481 L 14.319 183.400 12.680 183.465 C 10.769 183.541,10.000 184.338,10.000 186.245 C 10.000 187.382,9.844 187.568,8.700 187.798 C 6.322 188.277,6.000 188.448,6.000 189.236 C 6.000 189.675,5.574 190.211,5.027 190.460 C 3.944 190.954,2.982 192.856,3.342 193.793 C 3.507 194.223,3.316 194.402,2.687 194.405 C -0.006 194.422,0.000 194.410,-0.000 200.000 C -0.000 205.590,-0.006 205.578,2.687 205.595 C 3.316 205.598,3.507 205.777,3.342 206.207 C 2.982 207.144,3.944 209.046,5.027 209.540 C 5.567 209.785,6.000 210.325,6.000 210.752 C 6.000 211.531,7.720 212.400,9.260 212.400 C 9.819 212.400,10.000 212.700,10.000 213.626 C 10.000 215.595,10.621 216.324,12.541 216.612 C 14.237 216.866,14.288 216.919,14.640 218.736 L 15.000 220.600 17.090 220.971 C 18.926 221.298,19.154 221.443,18.972 222.171 C 18.825 222.760,19.022 223.116,19.650 223.400 C 20.594 223.827,20.900 224.299,21.461 226.200 C 21.782 227.287,21.993 227.411,23.708 227.522 C 25.582 227.643,25.600 227.657,25.600 229.048 C 25.600 231.205,26.176 231.917,28.162 232.215 C 29.880 232.473,29.927 232.520,30.185 234.238 C 30.391 235.614,30.645 236.046,31.349 236.223 C 31.844 236.347,32.748 236.978,33.358 237.624 C 34.093 238.403,34.862 238.800,35.634 238.800 C 36.741 238.800,36.800 238.887,36.800 240.520 C 36.800 242.681,37.319 243.200,39.480 243.200 L 41.200 243.200 41.200 244.920 C 41.200 247.081,41.719 247.600,43.880 247.600 C 45.439 247.600,45.600 247.692,45.600 248.581 C 45.600 252.004,51.506 253.970,52.148 250.761 C 52.284 250.079,52.636 249.600,53.000 249.600 C 53.685 249.600,54.400 248.069,54.400 246.601 C 54.400 245.864,54.645 245.625,55.500 245.527 C 56.364 245.427,56.627 245.164,56.727 244.300 C 56.826 243.436,57.062 243.200,57.827 243.200 L 58.800 243.200 58.800 237.858 C 58.800 232.768,58.755 232.468,57.836 231.476 C 57.305 230.904,56.751 229.888,56.604 229.218 C 56.396 228.270,56.122 228.000,55.368 228.000 L 54.400 228.000 54.400 222.816 C 54.400 218.950,54.261 217.502,53.854 217.121 C 53.445 216.739,53.406 216.327,53.701 215.482 C 54.029 214.542,53.949 214.197,53.227 213.429 C 52.749 212.920,52.221 211.986,52.052 211.352 C 51.771 210.295,51.577 210.190,49.693 210.080 L 47.640 209.960 47.520 207.880 C 47.409 205.964,47.317 205.790,46.341 205.677 C 45.678 205.601,45.202 205.253,45.070 204.748 C 44.954 204.304,44.496 203.846,44.052 203.730 C 43.547 203.598,43.199 203.122,43.123 202.459 C 43.036 201.713,42.734 201.362,42.100 201.272 C 41.406 201.174,41.200 200.882,41.200 200.000 C 41.200 199.118,41.406 198.826,42.100 198.728 C 42.734 198.638,43.036 198.287,43.123 197.541 C 43.199 196.878,43.547 196.402,44.052 196.270 C 44.496 196.154,44.954 195.696,45.070 195.252 C 45.202 194.747,45.678 194.399,46.341 194.323 C 47.317 194.210,47.409 194.036,47.520 192.120 L 47.640 190.040 49.720 189.920 C 51.544 189.815,51.816 189.687,51.931 188.878 C 52.005 188.356,52.466 187.803,52.996 187.601 C 53.511 187.406,54.043 186.893,54.180 186.463 C 54.317 186.032,54.872 185.568,55.414 185.432 C 56.131 185.252,56.400 184.913,56.400 184.192 C 56.400 183.503,56.620 183.200,57.120 183.200 C 58.717 183.200,58.800 182.631,58.800 171.747 L 58.800 161.253 59.900 161.127 L 61.000 161.000 61.113 156.704 C 61.225 152.502,61.249 152.403,62.222 152.159 L 63.217 151.909 63.109 144.454 L 63.000 137.000 60.396 136.884 C 58.715 136.809,57.616 136.944,57.296 137.264 M348.800 147.877 C 346.083 148.277,346.039 148.313,345.762 150.404 C 345.529 152.158,345.383 152.400,344.556 152.400 C 343.892 152.400,343.543 152.687,343.370 153.377 C 343.221 153.972,342.787 154.402,342.262 154.477 C 341.658 154.563,341.362 154.929,341.273 155.700 C 341.175 156.554,340.936 156.800,340.200 156.800 C 339.284 156.800,338.500 157.991,338.944 158.710 C 339.052 158.884,338.659 159.021,338.070 159.013 L 337.000 159.000 337.000 163.739 C 337.000 168.416,337.014 168.489,338.087 169.344 C 338.893 169.985,339.114 170.442,338.941 171.106 C 338.743 171.860,338.901 172.040,339.942 172.248 L 341.177 172.495 341.289 177.748 L 341.400 183.000 342.500 183.127 C 343.361 183.226,343.600 183.463,343.600 184.219 C 343.600 184.902,343.878 185.255,344.550 185.423 C 345.072 185.554,345.698 186.098,345.941 186.631 C 346.189 187.175,346.726 187.600,347.165 187.600 C 347.721 187.600,347.983 187.918,348.073 188.700 C 348.191 189.724,348.343 189.808,350.280 189.920 L 352.360 190.040 352.480 192.120 C 352.591 194.036,352.683 194.210,353.659 194.323 C 354.322 194.399,354.798 194.747,354.930 195.252 C 355.046 195.696,355.504 196.154,355.948 196.270 C 356.453 196.402,356.801 196.878,356.877 197.541 C 356.964 198.287,357.266 198.638,357.900 198.728 C 358.594 198.826,358.800 199.118,358.800 200.000 C 358.800 200.882,358.594 201.174,357.900 201.272 C 357.266 201.362,356.964 201.713,356.877 202.459 C 356.801 203.122,356.453 203.598,355.948 203.730 C 355.504 203.846,355.046 204.304,354.930 204.748 C 354.798 205.253,354.322 205.601,353.659 205.677 C 352.683 205.790,352.591 205.964,352.480 207.880 L 352.360 209.960 350.280 210.080 C 348.343 210.192,348.191 210.276,348.073 211.300 C 347.983 212.082,347.721 212.400,347.165 212.400 C 346.726 212.400,346.189 212.825,345.941 213.369 C 345.698 213.902,345.072 214.446,344.550 214.577 C 343.878 214.745,343.600 215.098,343.600 215.781 C 343.600 216.537,343.361 216.774,342.500 216.873 C 341.564 216.981,341.380 217.209,341.269 218.400 C 341.131 219.864,340.229 221.200,339.377 221.200 C 339.012 221.200,338.881 222.201,338.893 224.900 C 338.923 232.146,338.899 232.330,337.900 232.472 L 337.000 232.600 336.895 247.900 L 336.790 263.200 339.515 263.200 C 342.723 263.200,343.200 262.853,343.200 260.520 L 343.200 258.800 344.920 258.800 C 347.070 258.800,347.600 258.281,347.600 256.173 C 347.600 254.516,347.610 254.504,349.286 254.279 C 350.266 254.148,351.180 253.749,351.470 253.327 C 352.094 252.415,352.415 252.094,353.327 251.470 C 353.749 251.180,354.148 250.266,354.279 249.286 C 354.504 247.610,354.516 247.600,356.173 247.600 C 358.281 247.600,358.800 247.070,358.800 244.920 L 358.800 243.200 360.520 243.200 C 362.681 243.200,363.200 242.681,363.200 240.520 C 363.200 238.887,363.259 238.800,364.366 238.800 C 365.138 238.800,365.907 238.403,366.642 237.624 C 367.252 236.978,368.156 236.347,368.651 236.223 C 369.355 236.046,369.609 235.614,369.815 234.238 C 370.073 232.520,370.120 232.473,371.838 232.215 C 373.824 231.917,374.400 231.205,374.400 229.048 C 374.400 227.657,374.418 227.643,376.292 227.522 C 378.007 227.411,378.218 227.287,378.539 226.200 C 379.099 224.305,379.405 223.827,380.333 223.405 C 380.821 223.183,381.200 222.644,381.200 222.172 C 381.200 221.491,381.555 221.266,383.100 220.967 C 384.966 220.607,385.006 220.566,385.360 218.736 C 385.712 216.919,385.763 216.866,387.459 216.612 C 389.379 216.324,390.000 215.595,390.000 213.626 C 390.000 212.700,390.181 212.400,390.740 212.400 C 392.280 212.400,394.000 211.531,394.000 210.752 C 394.000 210.329,394.430 209.787,394.956 209.547 C 395.959 209.090,396.800 207.669,396.800 206.432 C 396.800 205.890,397.211 205.636,398.400 205.446 L 400.000 205.191 400.000 200.000 L 400.000 194.809 398.400 194.554 C 397.211 194.364,396.800 194.110,396.800 193.568 C 396.800 192.331,395.959 190.910,394.956 190.453 C 394.423 190.210,394.000 189.671,394.000 189.236 C 394.000 188.448,393.678 188.277,391.300 187.798 C 390.156 187.568,390.000 187.382,390.000 186.245 C 390.000 184.338,389.231 183.541,387.320 183.465 L 385.681 183.400 385.424 181.481 C 385.151 179.441,384.820 179.146,382.688 179.042 C 381.632 178.991,381.379 178.799,381.282 177.977 C 381.216 177.422,380.784 176.801,380.315 176.587 C 379.405 176.173,379.097 175.689,378.539 173.800 C 378.218 172.713,378.007 172.589,376.292 172.478 C 374.418 172.357,374.400 172.343,374.400 170.952 C 374.400 168.809,373.845 168.128,371.854 167.829 C 370.121 167.569,370.080 167.528,369.818 165.783 C 369.609 164.387,369.358 163.954,368.651 163.777 C 368.156 163.653,367.252 163.022,366.642 162.376 C 365.907 161.597,365.138 161.200,364.366 161.200 C 363.259 161.200,363.200 161.113,363.200 159.480 C 363.200 157.319,362.681 156.800,360.520 156.800 L 358.800 156.800 358.800 155.080 C 358.800 152.919,358.281 152.400,356.120 152.400 C 354.564 152.400,354.400 152.307,354.400 151.426 C 354.400 149.725,353.683 148.434,352.614 148.211 C 350.676 147.808,349.794 147.730,348.800 147.877 M76.800 244.357 C 76.800 247.540,76.803 247.547,77.900 247.673 C 78.946 247.794,78.996 247.895,78.910 249.738 C 78.825 251.555,78.894 251.705,80.010 252.126 C 80.664 252.373,81.200 252.703,81.200 252.859 C 81.200 253.969,82.611 254.400,86.245 254.400 L 90.034 254.400 89.917 251.300 C 89.802 248.249,89.783 248.198,88.700 248.073 C 87.918 247.983,87.600 247.721,87.600 247.165 C 87.600 246.726,87.175 246.189,86.631 245.941 C 86.098 245.698,85.554 245.072,85.423 244.550 C 85.255 243.878,84.902 243.600,84.219 243.600 C 83.463 243.600,83.226 243.361,83.127 242.500 C 83.002 241.417,82.951 241.398,79.900 241.283 L 76.800 241.166 76.800 244.357 M133.032 333.025 C 131.999 334.058,132.541 336.400,133.814 336.400 C 134.198 336.400,134.400 336.813,134.400 337.600 C 134.400 338.667,134.533 338.800,135.600 338.800 C 136.747 338.800,136.800 338.876,136.800 340.520 C 136.800 342.681,137.319 343.200,139.480 343.200 L 141.200 343.200 141.200 344.920 C 141.200 347.070,141.719 347.600,143.827 347.600 C 145.484 347.600,145.496 347.610,145.721 349.286 C 145.852 350.266,146.251 351.180,146.673 351.470 C 147.585 352.094,147.906 352.415,148.530 353.327 C 148.820 353.749,149.734 354.148,150.714 354.279 C 152.390 354.504,152.400 354.516,152.400 356.173 C 152.400 358.281,152.930 358.800,155.080 358.800 L 156.800 358.800 156.800 360.520 C 156.800 362.681,157.319 363.200,159.480 363.200 C 161.113 363.200,161.200 363.259,161.200 364.366 C 161.200 365.138,161.597 365.907,162.376 366.642 C 163.022 367.252,163.653 368.156,163.777 368.651 C 163.954 369.358,164.387 369.609,165.783 369.818 C 167.528 370.080,167.569 370.121,167.829 371.854 C 168.128 373.845,168.809 374.400,170.952 374.400 C 172.343 374.400,172.357 374.418,172.478 376.292 C 172.589 378.007,172.713 378.218,173.800 378.539 C 175.689 379.097,176.173 379.405,176.587 380.315 C 176.801 380.784,177.422 381.216,177.977 381.282 C 178.799 381.379,178.991 381.632,179.042 382.688 C 179.146 384.820,179.441 385.151,181.481 385.424 L 183.400 385.681 183.465 387.320 C 183.541 389.231,184.338 390.000,186.245 390.000 C 187.382 390.000,187.568 390.156,187.798 391.300 C 188.277 393.678,188.448 394.000,189.236 394.000 C 189.671 394.000,190.210 394.423,190.453 394.956 C 190.910 395.959,192.331 396.800,193.568 396.800 C 194.110 396.800,194.364 397.211,194.554 398.400 L 194.809 400.000 200.000 400.000 L 205.191 400.000 205.446 398.400 C 205.636 397.211,205.890 396.800,206.432 396.800 C 207.669 396.800,209.090 395.959,209.547 394.956 C 209.787 394.430,210.329 394.000,210.752 394.000 C 211.531 394.000,212.400 392.280,212.400 390.740 C 212.400 390.181,212.700 390.000,213.626 390.000 C 215.595 390.000,216.324 389.379,216.612 387.459 C 216.866 385.763,216.919 385.712,218.736 385.360 C 220.566 385.006,220.607 384.966,220.967 383.100 C 221.266 381.555,221.491 381.200,222.172 381.200 C 222.644 381.200,223.183 380.821,223.405 380.333 C 223.827 379.405,224.305 379.099,226.200 378.539 C 227.287 378.218,227.411 378.007,227.522 376.292 C 227.643 374.418,227.657 374.400,229.048 374.400 C 231.205 374.400,231.917 373.824,232.215 371.838 C 232.473 370.120,232.520 370.073,234.238 369.815 C 235.614 369.609,236.046 369.355,236.223 368.651 C 236.347 368.156,236.978 367.252,237.624 366.642 C 238.403 365.907,238.800 365.138,238.800 364.366 C 238.800 363.259,238.887 363.200,240.520 363.200 C 242.681 363.200,243.200 362.681,243.200 360.520 L 243.200 358.800 244.920 358.800 C 247.070 358.800,247.600 358.281,247.600 356.173 C 247.600 354.516,247.610 354.504,249.286 354.279 C 250.266 354.148,251.180 353.749,251.470 353.327 C 252.094 352.415,252.415 352.094,253.327 351.470 C 253.749 351.180,254.148 350.266,254.279 349.286 C 254.504 347.610,254.516 347.600,256.173 347.600 C 258.281 347.600,258.800 347.070,258.800 344.920 L 258.800 343.200 260.520 343.200 C 262.681 343.200,263.200 342.681,263.200 340.520 C 263.200 338.876,263.253 338.800,264.400 338.800 C 265.467 338.800,265.600 338.667,265.600 337.600 C 265.600 336.813,265.802 336.400,266.186 336.400 C 267.811 336.400,267.908 332.987,266.294 332.595 C 265.802 332.476,256.490 332.428,245.600 332.489 L 225.800 332.600 225.680 334.680 L 225.560 336.760 223.480 336.880 C 221.401 337.000,221.400 337.001,221.278 338.458 C 221.130 340.236,220.250 341.095,218.400 341.269 C 217.209 341.380,216.981 341.564,216.873 342.500 C 216.774 343.361,216.537 343.600,215.781 343.600 C 215.098 343.600,214.745 343.878,214.577 344.550 C 214.446 345.072,213.902 345.698,213.369 345.941 C 212.825 346.189,212.400 346.726,212.400 347.165 C 212.400 347.721,212.082 347.983,211.300 348.073 C 210.276 348.191,210.192 348.343,210.080 350.280 L 209.960 352.360 207.880 352.480 C 205.964 352.591,205.790 352.683,205.677 353.659 C 205.601 354.322,205.253 354.798,204.748 354.930 C 204.304 355.046,203.846 355.504,203.730 355.948 C 203.598 356.453,203.122 356.801,202.459 356.877 C 201.713 356.964,201.362 357.266,201.272 357.900 C 201.174 358.594,200.882 358.800,200.000 358.800 C 199.118 358.800,198.826 358.594,198.728 357.900 C 198.638 357.266,198.287 356.964,197.541 356.877 C 196.878 356.801,196.402 356.453,196.270 355.948 C 196.154 355.504,195.696 355.046,195.252 354.930 C 194.747 354.798,194.399 354.322,194.323 353.659 C 194.210 352.683,194.036 352.591,192.120 352.480 L 190.040 352.360 189.920 350.280 C 189.808 348.343,189.724 348.191,188.700 348.073 C 187.918 347.983,187.600 347.721,187.600 347.165 C 187.600 346.726,187.175 346.189,186.631 345.941 C 186.098 345.698,185.554 345.072,185.423 344.550 C 185.255 343.878,184.902 343.600,184.219 343.600 C 183.463 343.600,183.226 343.361,183.127 342.500 C 183.017 341.552,182.799 341.383,181.542 341.278 C 179.764 341.130,178.905 340.250,178.731 338.400 C 178.601 337.014,178.579 336.999,176.520 336.880 L 174.440 336.760 174.320 334.680 L 174.200 332.600 153.932 332.496 C 135.901 332.404,133.595 332.462,133.032 333.025 " stroke="none" fill="currentColor" fill-rule="evenodd"></path><path id="path1" d="M78.920 89.600 C 78.920 90.810,78.995 91.305,79.087 90.700 C 79.178 90.095,79.178 89.105,79.087 88.500 C 78.995 87.895,78.920 88.390,78.920 89.600 M78.893 97.600 C 78.893 98.370,78.975 98.685,79.076 98.300 C 79.176 97.915,79.176 97.285,79.076 96.900 C 78.975 96.515,78.893 96.830,78.893 97.600 M63.314 195.400 C 63.317 196.500,63.395 196.903,63.487 196.295 C 63.579 195.686,63.577 194.786,63.482 194.295 C 63.387 193.803,63.311 194.300,63.314 195.400 M58.901 221.800 C 58.905 222.680,58.987 222.993,59.083 222.495 C 59.179 221.998,59.175 221.278,59.075 220.895 C 58.975 220.513,58.896 220.920,58.901 221.800 M223.314 242.600 C 223.317 243.700,223.395 244.103,223.487 243.495 C 223.579 242.886,223.577 241.986,223.482 241.495 C 223.387 241.003,223.311 241.500,223.314 242.600 " stroke="none" fill="currentColor" fill-rule="evenodd"></path><path id="path2" d="M78.920 89.600 C 78.920 90.810,78.995 91.305,79.087 90.700 C 79.178 90.095,79.178 89.105,79.087 88.500 C 78.995 87.895,78.920 88.390,78.920 89.600 M78.893 97.600 C 78.893 98.370,78.975 98.685,79.076 98.300 C 79.176 97.915,79.176 97.285,79.076 96.900 C 78.975 96.515,78.893 96.830,78.893 97.600 M63.314 195.400 C 63.317 196.500,63.395 196.903,63.487 196.295 C 63.579 195.686,63.577 194.786,63.482 194.295 C 63.387 193.803,63.311 194.300,63.314 195.400 M58.901 221.800 C 58.905 222.680,58.987 222.993,59.083 222.495 C 59.179 221.998,59.175 221.278,59.075 220.895 C 58.975 220.513,58.896 220.920,58.901 221.800 M223.314 242.600 C 223.317 243.700,223.395 244.103,223.487 243.495 C 223.579 242.886,223.577 241.986,223.482 241.495 C 223.387 241.003,223.311 241.500,223.314 242.600 " stroke="none" fill="currentColor" fill-rule="evenodd"></path><path id="path3" d="M78.920 89.600 C 78.920 90.810,78.995 91.305,79.087 90.700 C 79.178 90.095,79.178 89.105,79.087 88.500 C 78.995 87.895,78.920 88.390,78.920 89.600 M78.893 97.600 C 78.893 98.370,78.975 98.685,79.076 98.300 C 79.176 97.915,79.176 97.285,79.076 96.900 C 78.975 96.515,78.893 96.830,78.893 97.600 M63.314 195.400 C 63.317 196.500,63.395 196.903,63.487 196.295 C 63.579 195.686,63.577 194.786,63.482 194.295 C 63.387 193.803,63.311 194.300,63.314 195.400 M58.901 221.800 C 58.905 222.680,58.987 222.993,59.083 222.495 C 59.179 221.998,59.175 221.278,59.075 220.895 C 58.975 220.513,58.896 220.920,58.901 221.800 M223.314 242.600 C 223.317 243.700,223.395 244.103,223.487 243.495 C 223.579 242.886,223.577 241.986,223.482 241.495 C 223.387 241.003,223.311 241.500,223.314 242.600 " stroke="none" fill="currentColor" fill-rule="evenodd"></path><path id="path4" d="M78.920 89.600 C 78.920 90.810,78.995 91.305,79.087 90.700 C 79.178 90.095,79.178 89.105,79.087 88.500 C 78.995 87.895,78.920 88.390,78.920 89.600 M78.893 97.600 C 78.893 98.370,78.975 98.685,79.076 98.300 C 79.176 97.915,79.176 97.285,79.076 96.900 C 78.975 96.515,78.893 96.830,78.893 97.600 M63.314 195.400 C 63.317 196.500,63.395 196.903,63.487 196.295 C 63.579 195.686,63.577 194.786,63.482 194.295 C 63.387 193.803,63.311 194.300,63.314 195.400 M58.901 221.800 C 58.905 222.680,58.987 222.993,59.083 222.495 C 59.179 221.998,59.175 221.278,59.075 220.895 C 58.975 220.513,58.896 220.920,58.901 221.800 M223.314 242.600 C 223.317 243.700,223.395 244.103,223.487 243.495 C 223.579 242.886,223.577 241.986,223.482 241.495 C 223.387 241.003,223.311 241.500,223.314 242.600 " stroke="none" fill="currentColor" fill-rule="evenodd"></path></g></svg>